<svg xmlns="http://www.w3.org/2000/svg" viewBox="0 0 900 1080" font-family="Inter, sans-serif">
  <rect width="900" height="1080" fill="#F8FAFC"/>

  <!-- TITRE -->
  <text x="450" y="38" text-anchor="middle" font-size="19" font-weight="700" fill="#1E293B">Architecture POC — Référentiel des Aides Publiques</text>
  <text x="450" y="58" text-anchor="middle" font-size="12" fill="#94A3B8">Stack recommandée : n8n + Payload CMS</text>

  <!-- ── LAYER 1 : SOURCES ── -->
  <rect x="30" y="78" width="840" height="150" rx="12" fill="white" stroke="#CBD5E1" stroke-width="1.5" stroke-dasharray="5,3"/>
  <text x="44" y="72" font-size="10" font-weight="700" fill="#94A3B8" letter-spacing="1.2">1. SOURCES OPÉRATEURS</text>

  <rect x="50" y="95" width="175" height="115" rx="10" fill="#EFF6FF" stroke="#3B82F6" stroke-width="1.5"/>
  <text x="68" y="116" font-size="15">🔌</text><text x="90" y="116" font-size="12" font-weight="700" fill="#1D4ED8">APIs REST</text>
  <rect x="62" y="124" width="60" height="18" rx="9" fill="#DBEAFE"/><text x="92" y="137" text-anchor="middle" font-size="10" fill="#1D4ED8">ADEME</text>
  <rect x="130" y="124" width="72" height="18" rx="9" fill="#DBEAFE"/><text x="166" y="137" text-anchor="middle" font-size="10" fill="#1D4ED8">Bpifrance</text>
  <rect x="62" y="148" width="44" height="18" rx="9" fill="#DBEAFE"/><text x="84" y="161" text-anchor="middle" font-size="10" fill="#1D4ED8">R2DA</text>
  <rect x="112" y="148" width="100" height="18" rx="9" fill="#DBEAFE"/><text x="162" y="161" text-anchor="middle" font-size="10" fill="#1D4ED8">Polling planifié</text>

  <rect x="245" y="95" width="175" height="115" rx="10" fill="#EFF6FF" stroke="#3B82F6" stroke-width="1.5"/>
  <text x="263" y="116" font-size="15">🕷️</text><text x="285" y="116" font-size="12" font-weight="700" fill="#1D4ED8">Scraping web</text>
  <rect x="257" y="124" width="40" height="18" rx="9" fill="#DBEAFE"/><text x="277" y="137" text-anchor="middle" font-size="10" fill="#1D4ED8">CCI</text>
  <rect x="305" y="124" width="44" height="18" rx="9" fill="#DBEAFE"/><text x="327" y="137" text-anchor="middle" font-size="10" fill="#1D4ED8">CMA</text>
  <rect x="257" y="148" width="60" height="18" rx="9" fill="#DBEAFE"/><text x="287" y="161" text-anchor="middle" font-size="10" fill="#1D4ED8">Régions</text>
  <rect x="325" y="148" width="84" height="18" rx="9" fill="#DBEAFE"/><text x="367" y="161" text-anchor="middle" font-size="10" fill="#1D4ED8">Collectivités</text>

  <rect x="440" y="95" width="175" height="115" rx="10" fill="#EFF6FF" stroke="#3B82F6" stroke-width="1.5"/>
  <text x="458" y="116" font-size="15">📂</text><text x="480" y="116" font-size="12" font-weight="700" fill="#1D4ED8">Import CSV</text>
  <rect x="452" y="124" width="100" height="18" rx="9" fill="#DBEAFE"/><text x="502" y="137" text-anchor="middle" font-size="10" fill="#1D4ED8">Upload manuel</text>
  <rect x="452" y="148" width="80" height="18" rx="9" fill="#DBEAFE"/><text x="492" y="161" text-anchor="middle" font-size="10" fill="#1D4ED8">Import batch</text>

  <rect x="635" y="95" width="175" height="115" rx="10" fill="#EFF6FF" stroke="#3B82F6" stroke-width="1.5"/>
  <text x="653" y="116" font-size="15">📡</text><text x="675" y="116" font-size="12" font-weight="700" fill="#1D4ED8">Webhooks</text>
  <rect x="647" y="124" width="110" height="18" rx="9" fill="#DBEAFE"/><text x="702" y="137" text-anchor="middle" font-size="10" fill="#1D4ED8">Push opérateur</text>
  <rect x="647" y="148" width="80" height="18" rx="9" fill="#DBEAFE"/><text x="687" y="161" text-anchor="middle" font-size="10" fill="#1D4ED8">Temps réel</text>

  <!-- FLÈCHE 1 -->
  <line x1="450" y1="230" x2="450" y2="254" stroke="#94A3B8" stroke-width="2"/>
  <polygon points="450,262 444,250 456,250" fill="#94A3B8"/>
  <rect x="362" y="238" width="176" height="18" rx="6" fill="#F1F5F9"/>
  <text x="450" y="251" text-anchor="middle" font-size="10" fill="#64748B">ingestion + transformation</text>

  <!-- ── LAYER 2 : N8N ── -->
  <rect x="30" y="268" width="840" height="148" rx="12" fill="white" stroke="#F97316" stroke-width="2" stroke-dasharray="5,3"/>
  <text x="44" y="262" font-size="10" font-weight="700" fill="#F97316" letter-spacing="1.2">2. N8N — ORCHESTRATION &amp; TRANSFORMATION</text>

  <rect x="50" y="284" width="195" height="116" rx="10" fill="#FFF7ED" stroke="#F97316" stroke-width="1.5"/>
  <text x="68" y="305" font-size="15">📥</text><text x="90" y="305" font-size="12" font-weight="700" fill="#C2410C">Collecte</text>
  <rect x="62" y="313" width="100" height="18" rx="9" fill="#FFEDD5"/><text x="112" y="326" text-anchor="middle" font-size="10" fill="#C2410C">Polling planifié</text>
  <rect x="62" y="337" width="100" height="18" rx="9" fill="#FFEDD5"/><text x="112" y="350" text-anchor="middle" font-size="10" fill="#C2410C">Trigger webhook</text>
  <rect x="62" y="361" width="84" height="18" rx="9" fill="#FFEDD5"/><text x="104" y="374" text-anchor="middle" font-size="10" fill="#C2410C">Upload CSV</text>

  <rect x="265" y="284" width="240" height="116" rx="10" fill="#FFF7ED" stroke="#F97316" stroke-width="1.5"/>
  <text x="283" y="305" font-size="15">⚙️</text><text x="305" y="305" font-size="12" font-weight="700" fill="#C2410C">Transformation</text>
  <rect x="277" y="313" width="110" height="18" rx="9" fill="#FFEDD5"/><text x="332" y="326" text-anchor="middle" font-size="10" fill="#C2410C">Mapping schéma</text>
  <rect x="277" y="337" width="100" height="18" rx="9" fill="#FFEDD5"/><text x="327" y="350" text-anchor="middle" font-size="10" fill="#C2410C">Déduplication</text>
  <rect x="277" y="361" width="130" height="18" rx="9" fill="#FFEDD5"/><text x="342" y="374" text-anchor="middle" font-size="10" fill="#C2410C">Validation des champs</text>

  <rect x="525" y="284" width="220" height="116" rx="10" fill="#FFF7ED" stroke="#F97316" stroke-width="1.5"/>
  <text x="543" y="305" font-size="15">🔔</text><text x="565" y="305" font-size="12" font-weight="700" fill="#C2410C">Notifications</text>
  <rect x="537" y="313" width="140" height="18" rx="9" fill="#FFEDD5"/><text x="607" y="326" text-anchor="middle" font-size="10" fill="#C2410C">Alerte échéance J-30</text>
  <rect x="537" y="337" width="100" height="18" rx="9" fill="#FFEDD5"/><text x="587" y="350" text-anchor="middle" font-size="10" fill="#C2410C">Email opérateur</text>
  <rect x="537" y="361" width="100" height="18" rx="9" fill="#FFEDD5"/><text x="587" y="374" text-anchor="middle" font-size="10" fill="#C2410C">Slack / Teams</text>

  <!-- FLÈCHE 2 -->
  <line x1="450" y1="418" x2="450" y2="442" stroke="#94A3B8" stroke-width="2"/>
  <polygon points="450,450 444,438 456,438" fill="#94A3B8"/>
  <rect x="362" y="426" width="176" height="18" rx="6" fill="#F1F5F9"/>
  <text x="450" y="439" text-anchor="middle" font-size="10" fill="#64748B">REST API → Payload</text>

  <!-- ── LAYER 3 : PAYLOAD ── -->
  <rect x="30" y="455" width="840" height="300" rx="12" fill="white" stroke="#22C55E" stroke-width="2" stroke-dasharray="5,3"/>
  <text x="44" y="449" font-size="10" font-weight="700" fill="#22C55E" letter-spacing="1.2">3. PAYLOAD CMS — CŒUR MÉTIER (TypeScript)</text>

  <!-- Workflow statuts -->
  <rect x="50" y="470" width="800" height="58" rx="10" fill="#F0FDF4" stroke="#86EFAC" stroke-width="1.5"/>
  <text x="68" y="488" font-size="11" font-weight="700" fill="#15803D">📋 Cycle de vie d'une aide</text>
  <rect x="65" y="495" width="88" height="22" rx="11" fill="#F3F4F6"/><text x="109" y="510" text-anchor="middle" font-size="10" font-weight="600" fill="#374151">✏️ Brouillon</text>
  <text x="159" y="510" font-size="13" fill="#CBD5E1">→</text>
  <rect x="172" y="495" width="108" height="22" rx="11" fill="#FEF3C7"/><text x="226" y="510" text-anchor="middle" font-size="10" font-weight="600" fill="#92400E">🙋 En attente</text>
  <text x="286" y="510" font-size="13" fill="#CBD5E1">→</text>
  <rect x="299" y="495" width="82" height="22" rx="11" fill="#DBEAFE"/><text x="340" y="510" text-anchor="middle" font-size="10" font-weight="600" fill="#1E40AF">👀 À relire</text>
  <text x="387" y="510" font-size="13" fill="#CBD5E1">→</text>
  <rect x="400" y="495" width="80" height="22" rx="11" fill="#DCFCE7"/><text x="440" y="510" text-anchor="middle" font-size="10" font-weight="600" fill="#166534">✅ En ligne</text>
  <text x="486" y="510" font-size="13" fill="#CBD5E1">→</text>
  <rect x="499" y="495" width="124" height="22" rx="11" fill="#FEF9C3"/><text x="561" y="510" text-anchor="middle" font-size="10" font-weight="600" fill="#713F12">⚠️ Derniers jours</text>
  <text x="629" y="510" font-size="13" fill="#CBD5E1">→</text>
  <rect x="642" y="495" width="76" height="22" rx="11" fill="#FEE2E2"/><text x="680" y="510" text-anchor="middle" font-size="10" font-weight="600" fill="#991B1B">❌ Expirée</text>

  <!-- 3 cards Payload -->
  <rect x="50" y="542" width="238" height="190" rx="10" fill="#F0FDF4" stroke="#22C55E" stroke-width="1.5"/>
  <text x="68" y="563" font-size="15">🗄️</text><text x="90" y="563" font-size="12" font-weight="700" fill="#15803D">Collections</text>
  <rect x="62" y="571" width="56" height="20" rx="10" fill="#DCFCE7"/><text x="90" y="585" text-anchor="middle" font-size="10" fill="#15803D">Aides</text>
  <rect x="124" y="571" width="60" height="20" rx="10" fill="#DCFCE7"/><text x="154" y="585" text-anchor="middle" font-size="10" fill="#15803D">Projets</text>
  <rect x="62" y="597" width="90" height="20" rx="10" fill="#DCFCE7"/><text x="107" y="611" text-anchor="middle" font-size="10" fill="#15803D">Opérateurs</text>
  <rect x="158" y="597" width="80" height="20" rx="10" fill="#DCFCE7"/><text x="198" y="611" text-anchor="middle" font-size="10" fill="#15803D">Contacts</text>
  <line x1="62" y1="625" x2="274" y2="625" stroke="#BBF7D0" stroke-width="1"/>
  <text x="62" y="642" font-size="10" font-weight="600" fill="#166534">Relations :</text>
  <text x="62" y="658" font-size="10" fill="#4B5563">Aide ↔ Projet</text>
  <text x="62" y="674" font-size="10" fill="#4B5563">Aide ↔ Aide (parente/enfant)</text>
  <text x="62" y="690" font-size="10" fill="#4B5563">Aide ↔ Opérateur</text>
  <text x="62" y="706" font-size="10" fill="#4B5563">Schéma TypeScript natif</text>
  <text x="62" y="722" font-size="10" fill="#4B5563">API REST + GraphQL auto</text>

  <rect x="308" y="542" width="258" height="190" rx="10" fill="#F0FDF4" stroke="#22C55E" stroke-width="1.5"/>
  <text x="326" y="563" font-size="15">⚡</text><text x="348" y="563" font-size="12" font-weight="700" fill="#15803D">Hooks lifecycle</text>
  <rect x="320" y="571" width="106" height="20" rx="10" fill="#DCFCE7"/><text x="373" y="585" text-anchor="middle" font-size="10" fill="#15803D">Journal d'audit</text>
  <rect x="432" y="571" width="120" height="20" rx="10" fill="#DCFCE7"/><text x="492" y="585" text-anchor="middle" font-size="10" fill="#15803D">Notif changement</text>
  <rect x="320" y="597" width="110" height="20" rx="10" fill="#DCFCE7"/><text x="375" y="611" text-anchor="middle" font-size="10" fill="#15803D">Validation auto</text>
  <rect x="436" y="597" width="114" height="20" rx="10" fill="#DCFCE7"/><text x="493" y="611" text-anchor="middle" font-size="10" fill="#15803D">Lien aide ↔ projet</text>
  <line x1="320" y1="625" x2="552" y2="625" stroke="#BBF7D0" stroke-width="1"/>
  <text x="320" y="642" font-size="10" font-weight="600" fill="#166534">beforeChange / afterChange</text>
  <text x="320" y="658" font-size="10" fill="#4B5563">→ Qui a modifié quoi et quand</text>
  <text x="320" y="674" font-size="10" fill="#4B5563">→ Alerte si champs incomplets</text>
  <text x="320" y="690" font-size="10" fill="#4B5563">→ Passage auto "Expirée" J+0</text>
  <text x="320" y="706" font-size="10" fill="#4B5563">→ Déclenchement notifs n8n</text>

  <rect x="586" y="542" width="254" height="190" rx="10" fill="#F0FDF4" stroke="#22C55E" stroke-width="1.5"/>
  <text x="604" y="563" font-size="15">🔐</text><text x="626" y="563" font-size="12" font-weight="700" fill="#15803D">Droits utilisateurs</text>
  <rect x="598" y="571" width="100" height="20" rx="10" fill="#DCFCE7"/><text x="648" y="585" text-anchor="middle" font-size="10" fill="#15803D">Super-admin</text>
  <rect x="706" y="571" width="118" height="20" rx="10" fill="#DCFCE7"/><text x="765" y="585" text-anchor="middle" font-size="10" fill="#15803D">Admin d'une aide</text>
  <rect x="598" y="597" width="100" height="20" rx="10" fill="#DCFCE7"/><text x="648" y="611" text-anchor="middle" font-size="10" fill="#15803D">Contributeur</text>
  <rect x="706" y="597" width="96" height="20" rx="10" fill="#DCFCE7"/><text x="754" y="611" text-anchor="middle" font-size="10" fill="#15803D">Observateur</text>
  <line x1="598" y1="625" x2="826" y2="625" stroke="#BBF7D0" stroke-width="1"/>
  <text x="598" y="642" font-size="10" font-weight="600" fill="#166534">Droits par champ (TypeScript)</text>
  <text x="598" y="658" font-size="10" fill="#4B5563">→ Périmètre opérateur/région</text>
  <text x="598" y="674" font-size="10" fill="#4B5563">→ Validation contributeur</text>
  <text x="598" y="690" font-size="10" fill="#4B5563">→ Connexion ProConnect</text>

  <!-- FLÈCHES vers outputs -->
  <line x1="250" y1="757" x2="250" y2="790" stroke="#94A3B8" stroke-width="2"/>
  <polygon points="250,798 244,784 256,784" fill="#94A3B8"/>
  <rect x="170" y="765" width="110" height="18" rx="6" fill="#F1F5F9"/>
  <text x="225" y="778" text-anchor="middle" font-size="10" fill="#64748B">Admin UI</text>

  <line x1="650" y1="757" x2="650" y2="790" stroke="#94A3B8" stroke-width="2"/>
  <polygon points="650,798 644,784 656,784" fill="#94A3B8"/>
  <rect x="554" y="765" width="192" height="18" rx="6" fill="#F1F5F9"/>
  <text x="650" y="778" text-anchor="middle" font-size="10" fill="#64748B">API REST + GraphQL publique</text>

  <!-- ── LAYER 4 ── -->
  <rect x="30" y="800" width="390" height="140" rx="12" fill="white" stroke="#A855F7" stroke-width="2" stroke-dasharray="5,3"/>
  <text x="44" y="794" font-size="10" font-weight="700" fill="#A855F7" letter-spacing="1.2">4A. BACK-OFFICE OPÉRATEURS</text>
  <text x="55" y="823" font-size="15">🖥️</text><text x="77" y="823" font-size="12" font-weight="700" fill="#7E22CE">Interface Payload Admin</text>
  <rect x="55" y="831" width="108" height="20" rx="10" fill="#F3E8FF"/><text x="109" y="845" text-anchor="middle" font-size="10" fill="#7E22CE">Créer/éditer aide</text>
  <rect x="171" y="831" width="104" height="20" rx="10" fill="#F3E8FF"/><text x="223" y="845" text-anchor="middle" font-size="10" fill="#7E22CE">Workflow statuts</text>
  <rect x="55" y="857" width="90" height="20" rx="10" fill="#F3E8FF"/><text x="100" y="871" text-anchor="middle" font-size="10" fill="#7E22CE">Dashboard</text>
  <rect x="153" y="857" width="122" height="20" rx="10" fill="#F3E8FF"/><text x="214" y="871" text-anchor="middle" font-size="10" fill="#7E22CE">Profil opérateur</text>
  <rect x="55" y="883" width="120" height="20" rx="10" fill="#F3E8FF"/><text x="115" y="897" text-anchor="middle" font-size="10" fill="#7E22CE">Suivi performance</text>
  <rect x="183" y="883" width="104" height="20" rx="10" fill="#F3E8FF"/><text x="235" y="897" text-anchor="middle" font-size="10" fill="#7E22CE">Import de masse</text>

  <rect x="480" y="800" width="390" height="140" rx="12" fill="white" stroke="#F43F5E" stroke-width="2" stroke-dasharray="5,3"/>
  <text x="494" y="794" font-size="10" font-weight="700" fill="#F43F5E" letter-spacing="1.2">4B. API DE RÉFÉRENCE</text>
  <text x="505" y="823" font-size="15">🌐</text><text x="527" y="823" font-size="12" font-weight="700" fill="#BE123C">Consommateurs</text>
  <rect x="505" y="831" width="84" height="20" rx="10" fill="#FFE4E6"/><text x="547" y="845" text-anchor="middle" font-size="10" fill="#BE123C">les-aides.fr</text>
  <rect x="597" y="831" width="110" height="20" rx="10" fill="#FFE4E6"/><text x="652" y="845" text-anchor="middle" font-size="10" fill="#BE123C">Aides-territoires</text>
  <rect x="715" y="831" width="130" height="20" rx="10" fill="#FFE4E6"/><text x="780" y="845" text-anchor="middle" font-size="10" fill="#BE123C">Sites opérateurs</text>
  <rect x="505" y="857" width="120" height="20" rx="10" fill="#FFE4E6"/><text x="565" y="871" text-anchor="middle" font-size="10" fill="#BE123C">Widgets partenaires</text>
  <rect x="633" y="857" width="100" height="20" rx="10" fill="#FFE4E6"/><text x="683" y="871" text-anchor="middle" font-size="10" fill="#BE123C">Aides-entreprises</text>
  <text x="650" y="920" text-anchor="middle" font-size="11" font-weight="600" fill="#BE123C">🎉 KPI principal : nb requêtes API</text>

  <!-- NOTE ÉVOLUTION -->
  <rect x="30" y="958" width="840" height="50" rx="10" fill="#1E293B"/>
  <text x="450" y="978" text-anchor="middle" font-size="11" font-weight="700" fill="white">🛣️ Évolution vers la production</text>
  <text x="450" y="996" text-anchor="middle" font-size="10" fill="#94A3B8">POC n8n + Payload  →  Validation usages  →  Migration Airflow si volume  →  Payload inchangé (zéro dette)  →  Multi-opérateurs &amp; multi-thématiques</text>
</svg>